# xmcd CD database file
#
# Track frame offsets:
#	150
#	24525
#	47100
#	71475
#
# Disc length: 1249 seconds
#
# Revision: 0
# Processed by: cddbd v1.5PL3 Copyright (c) Steve Scherf et al.
# Submitted via: CDex 1.50beta9
#
DISCID=2f04df04
DTITLE=MAX - Grace of my heart
DYEAR=1900
DGENRE=J-POP
TTITLE0=Grace of my heart
TTITLE1=GETTING OVER
TTITLE2=Grace of my heart(original karaoke)
TTITLE3=GETTING OVER(original karaoke)
EXTD=
EXTT0=
EXTT1=
EXTT2=
EXTT3=
PLAYORDER=
